<svg xmlns="http://www.w3.org/2000/svg" xmlns:xlink="http://www.w3.org/1999/xlink" viewBox="0 0 1087.94 352.95"><defs><style>.cls-1,.cls-13{fill:#4747a1;}.cls-2{fill:#6464a0;}.cls-3{fill:url(#linear-gradient);}.cls-4{fill:url(#linear-gradient-2);}.cls-5,.cls-9{fill:#0e92cc;}.cls-6{fill:url(#linear-gradient-3);}.cls-7{fill:url(#linear-gradient-4);}.cls-8{fill:url(#linear-gradient-5);}.cls-9{font-size:100px;font-family:Nunito-SemiBold, Nunito;font-weight:600;}.cls-10{letter-spacing:-0.02em;}.cls-11,.cls-13{letter-spacing:-0.02em;}.cls-12{letter-spacing:-0.01em;}.cls-14{letter-spacing:-0.02em;}.cls-15{letter-spacing:-0.01em;}.cls-16{letter-spacing:0em;}</style><linearGradient id="linear-gradient" x1="84.89" y1="55.67" x2="223.86" y2="55.67" gradientUnits="userSpaceOnUse"><stop offset="0" stop-color="#8ccce6"/><stop offset="1" stop-color="#36a6d6"/></linearGradient><linearGradient id="linear-gradient-2" x1="125.11" y1="32.82" x2="190.07" y2="32.82" gradientUnits="userSpaceOnUse"><stop offset="0" stop-color="#36a6d6" stop-opacity="0"/><stop offset="1" stop-color="#0657a3"/></linearGradient><linearGradient id="linear-gradient-3" x1="200.9" y1="-262.2" x2="287.57" y2="-262.2" gradientTransform="translate(416.57 521.91) rotate(-90)" xlink:href="#linear-gradient"/><linearGradient id="linear-gradient-4" x1="122.45" y1="300.52" x2="179.58" y2="300.52" gradientUnits="userSpaceOnUse"><stop offset="0" stop-color="#0657a3"/><stop offset="1" stop-color="#36a6d6" stop-opacity="0"/></linearGradient><linearGradient id="linear-gradient-5" x1="110.44" y1="165.79" x2="198.33" y2="165.79" gradientUnits="userSpaceOnUse"><stop offset="0" stop-color="#0657a3"/><stop offset="0.5" stop-color="#0e92cc"/><stop offset="1" stop-color="#0657a3"/></linearGradient></defs><g id="Layer_2" data-name="Layer 2"><g id="Camada_1" data-name="Camada 1"><path class="cls-1" d="M86.66,205.87A43.58,43.58,0,0,1,69.87,209c-23,0-39-19.19-39-42.22v-.39c0-23,16.32-41.84,39-41.84a42.34,42.34,0,0,1,16.79,3.39V98.67a91.81,91.81,0,0,0-16.6-1.42C28.79,97.25,0,128.54,0,166.74v.38c0,38.58,29.37,69.1,68.91,69.1a86.23,86.23,0,0,0,17.75-1.71Z"/><polygon class="cls-1" points="133.31 176.98 133.31 218.69 110.44 218.69 110.44 114.78 133.31 114.78 133.31 155.9 133.31 176.98"/><polygon class="cls-1" points="175.47 155.9 175.47 114.78 198.33 114.78 198.33 218.69 175.47 218.69 175.47 176.98 175.47 155.9"/><path class="cls-1" d="M32.52,179.16a47.78,47.78,0,0,1-1.62-12.42v-.39A43.94,43.94,0,0,1,41,137.85a20.23,20.23,0,0,0-.91-2.21c-14.79-3-27.62,2.59-37.46,11.73A73,73,0,0,0,0,166.74v.38a71,71,0,0,0,7.79,32.66C19.25,193,27.15,186,32.52,179.16Z"/><path class="cls-2" d="M0,166.74v.38a71,71,0,0,0,7.79,32.66c12-33.9,24.07-52,32.8-61.48a37.93,37.93,0,0,1,8.64-7.75,18.81,18.81,0,0,1,4.35-2.43h0a37.83,37.83,0,0,1,16.29-3.61,42.34,42.34,0,0,1,16.79,3.39V98.67a91.81,91.81,0,0,0-16.6-1.42C28.79,97.25,0,128.54,0,166.74Z"/><path class="cls-2" d="M222.11,127.6a43.77,43.77,0,0,1,16.79-3.09c23,0,39,19.19,39,42.23v.38c0,23-16.32,41.85-39,41.85a42.52,42.52,0,0,1-16.79-3.39v29.23a92.77,92.77,0,0,0,16.6,1.41c41.27,0,70.06-31.29,70.06-69.48v-.39c0-38.58-29.37-69.1-68.91-69.1A86.93,86.93,0,0,0,222.11,99Z"/><path class="cls-2" d="M276.25,154.31a47.86,47.86,0,0,1,1.62,12.43v.38a43.86,43.86,0,0,1-10.07,28.5,21.13,21.13,0,0,0,.91,2.22c14.79,3,27.62-2.6,37.46-11.73a73.15,73.15,0,0,0,2.6-19.37v-.39A71,71,0,0,0,301,133.7C289.52,140.46,281.63,147.49,276.25,154.31Z"/><path class="cls-1" d="M308.77,166.74v-.39A71,71,0,0,0,301,133.7c-12,33.9-24.06,52-32.8,61.48a38.17,38.17,0,0,1-8.64,7.75,18.81,18.81,0,0,1-4.35,2.43h0A37.83,37.83,0,0,1,238.9,209a42.52,42.52,0,0,1-16.79-3.39v29.23a92.77,92.77,0,0,0,16.6,1.41C280,236.22,308.77,204.93,308.77,166.74Z"/><path class="cls-3" d="M115.24,99a43.58,43.58,0,0,1-3.09-16.79c0-23,19.19-39,42.22-39h.39c23,0,41.84,16.32,41.84,39A42.34,42.34,0,0,1,193.21,99h29.23a91.81,91.81,0,0,0,1.42-16.6c0-41.27-31.29-70.06-69.49-70.06H154c-38.58,0-69.1,29.37-69.1,68.91A86.23,86.23,0,0,0,86.6,99Z"/><path class="cls-4" d="M142,44.86a47.78,47.78,0,0,1,12.42-1.62h.39a43.88,43.88,0,0,1,28.5,10.07,20.23,20.23,0,0,0,2.21-.91c3-14.79-2.59-27.62-11.73-37.46a73,73,0,0,0-19.37-2.6H154a71,71,0,0,0-32.66,7.79C128.09,31.59,135.12,39.48,142,44.86Z"/><path class="cls-5" d="M154.37,12.34H154a71,71,0,0,0-32.66,7.79c33.9,12,52,24.06,61.48,32.8a37.93,37.93,0,0,1,7.75,8.64A18.81,18.81,0,0,1,193,65.92h0a37.83,37.83,0,0,1,3.61,16.29A42.34,42.34,0,0,1,193.21,99h29.23a91.81,91.81,0,0,0,1.42-16.6C223.86,41.13,192.57,12.34,154.37,12.34Z"/><path class="cls-6" d="M193.51,234.35a43.77,43.77,0,0,1,3.09,16.79c0,23-19.19,39-42.23,39H154c-23,0-41.85-16.32-41.85-39a42.52,42.52,0,0,1,3.39-16.79H86.3A92.77,92.77,0,0,0,84.89,251c0,41.27,31.29,70.06,69.48,70.06h.39c38.58,0,69.1-29.37,69.1-68.91a86.93,86.93,0,0,0-1.71-17.75Z"/><path class="cls-7" d="M166.8,288.49a47.86,47.86,0,0,1-12.43,1.62H154A43.86,43.86,0,0,1,125.49,280a21.13,21.13,0,0,0-2.22.91c-3,14.79,2.6,27.62,11.73,37.46a73.09,73.09,0,0,0,19.37,2.6h.39a71,71,0,0,0,32.65-7.79C180.65,301.76,173.62,293.86,166.8,288.49Z"/><path class="cls-5" d="M154.37,321h.39a71,71,0,0,0,32.65-7.79c-33.9-12-52-24.06-61.48-32.8a38.17,38.17,0,0,1-7.75-8.64,18.81,18.81,0,0,1-2.43-4.35h0a37.83,37.83,0,0,1-3.61-16.29,42.52,42.52,0,0,1,3.39-16.79H86.3A92.77,92.77,0,0,0,84.89,251C84.89,292.22,116.18,321,154.37,321Z"/><polygon class="cls-2" points="110.44 184.91 133.31 184.91 133.31 164.95 110.44 184.91"/><polygon class="cls-2" points="198.33 184.91 175.47 184.91 175.47 167.3 198.33 184.91"/><path class="cls-8" d="M110.44,161s22.87-14.28,43.95-14.28S198.33,161,198.33,161v24s-20.18-17.33-43.94-17.33-43.95,17.33-43.95,17.33Z"/><text class="cls-9" transform="translate(368.95 85.25)"><tspan class="cls-10">C</tspan><tspan class="cls-11" x="65.4" y="0">O</tspan><tspan x="141.2" y="0">VID</tspan><tspan class="cls-1" x="313.1" y="0"> </tspan><tspan class="cls-1"><tspan x="0" y="120">MAN</tspan><tspan class="cls-12" x="234" y="120">A</tspan><tspan x="306.2" y="120">GEMENT</tspan></tspan><tspan class="cls-13"><tspan x="0" y="240">S</tspan><tspan class="cls-14" x="60.5" y="240">Y</tspan><tspan class="cls-15" x="118.7" y="240">S</tspan><tspan class="cls-16" x="179.4" y="240">TEM</tspan></tspan></text></g></g></svg>