<svg xmlns="http://www.w3.org/2000/svg" xmlns:xlink="http://www.w3.org/1999/xlink" viewBox="0 0 308.77 308.67"><defs><style>.cls-1{fill:#4747a1;}.cls-2{fill:#6464a0;}.cls-3{fill:url(#linear-gradient);}.cls-4{fill:url(#linear-gradient-2);}.cls-5{fill:#0e92cc;}.cls-6{fill:url(#linear-gradient-3);}.cls-7{fill:url(#linear-gradient-4);}.cls-8{fill:url(#linear-gradient-5);}</style><linearGradient id="linear-gradient" x1="84.89" y1="43.33" x2="223.86" y2="43.33" gradientUnits="userSpaceOnUse"><stop offset="0" stop-color="#8ccce6"/><stop offset="1" stop-color="#36a6d6"/></linearGradient><linearGradient id="linear-gradient-2" x1="125.11" y1="20.49" x2="190.07" y2="20.49" gradientUnits="userSpaceOnUse"><stop offset="0" stop-color="#36a6d6" stop-opacity="0"/><stop offset="1" stop-color="#0657a3"/></linearGradient><linearGradient id="linear-gradient-3" x1="200.9" y1="-274.54" x2="287.57" y2="-274.54" gradientTransform="translate(428.91 509.58) rotate(-90)" xlink:href="#linear-gradient"/><linearGradient id="linear-gradient-4" x1="122.45" y1="288.19" x2="179.58" y2="288.19" gradientUnits="userSpaceOnUse"><stop offset="0" stop-color="#0657a3"/><stop offset="1" stop-color="#36a6d6" stop-opacity="0"/></linearGradient><linearGradient id="linear-gradient-5" x1="110.44" y1="153.45" x2="198.33" y2="153.45" gradientUnits="userSpaceOnUse"><stop offset="0" stop-color="#0657a3"/><stop offset="0.5" stop-color="#0e92cc"/><stop offset="1" stop-color="#0657a3"/></linearGradient></defs><g id="Layer_2" data-name="Layer 2"><g id="Camada_1" data-name="Camada 1"><path class="cls-1" d="M86.66,193.53a43.57,43.57,0,0,1-16.79,3.1c-23,0-39-19.2-39-42.23V154c0-23,16.32-41.85,39-41.85a42.34,42.34,0,0,1,16.79,3.39V86.33a92.77,92.77,0,0,0-16.6-1.41C28.79,84.92,0,116.2,0,154.4v.38c0,38.58,29.37,69.1,68.91,69.1a86.23,86.23,0,0,0,17.75-1.71Z"/><polygon class="cls-1" points="133.31 164.64 133.31 206.36 110.44 206.36 110.44 102.44 133.31 102.44 133.31 143.56 133.31 164.64"/><polygon class="cls-1" points="175.47 143.56 175.47 102.44 198.33 102.44 198.33 206.36 175.47 206.36 175.47 164.64 175.47 143.56"/><path class="cls-1" d="M32.52,166.82A47.78,47.78,0,0,1,30.9,154.4V154A43.9,43.9,0,0,1,41,125.52a21.13,21.13,0,0,0-.91-2.22c-14.79-3-27.62,2.59-37.46,11.73A73.09,73.09,0,0,0,0,154.4v.38a71,71,0,0,0,7.79,32.66C19.25,180.68,27.15,173.65,32.52,166.82Z"/><path class="cls-2" d="M0,154.4v.38a71,71,0,0,0,7.79,32.66c12-33.9,24.07-52,32.8-61.48a38.17,38.17,0,0,1,8.64-7.75,18.81,18.81,0,0,1,4.35-2.43h0a37.83,37.83,0,0,1,16.29-3.61,42.34,42.34,0,0,1,16.79,3.39V86.33a92.77,92.77,0,0,0-16.6-1.41C28.79,84.92,0,116.2,0,154.4Z"/><path class="cls-2" d="M222.11,115.27a43.57,43.57,0,0,1,16.79-3.1c23,0,39,19.2,39,42.23v.38c0,23-16.32,41.85-39,41.85a42.52,42.52,0,0,1-16.79-3.39v29.23a92.77,92.77,0,0,0,16.6,1.41c41.27,0,70.06-31.28,70.06-69.48V154c0-38.59-29.37-69.1-68.91-69.1a87,87,0,0,0-17.75,1.7Z"/><path class="cls-2" d="M276.25,142a47.86,47.86,0,0,1,1.62,12.43v.38a43.84,43.84,0,0,1-10.07,28.5,21.13,21.13,0,0,0,.91,2.22c14.79,3,27.62-2.6,37.46-11.73a73.09,73.09,0,0,0,2.6-19.37V154A71,71,0,0,0,301,121.36C289.52,128.12,281.63,135.15,276.25,142Z"/><path class="cls-1" d="M308.77,154.4V154A71,71,0,0,0,301,121.36c-12,33.9-24.06,52-32.8,61.48a38.17,38.17,0,0,1-8.64,7.75,18.81,18.81,0,0,1-4.35,2.43h0a37.83,37.83,0,0,1-16.29,3.61,42.52,42.52,0,0,1-16.79-3.39v29.23a92.77,92.77,0,0,0,16.6,1.41C280,223.88,308.77,192.6,308.77,154.4Z"/><path class="cls-3" d="M115.24,86.66a43.58,43.58,0,0,1-3.09-16.79c0-23,19.19-39,42.22-39h.39c23,0,41.84,16.32,41.84,39a42.34,42.34,0,0,1-3.39,16.79h29.23a91.81,91.81,0,0,0,1.42-16.6C223.86,28.79,192.57,0,154.37,0H154c-38.58,0-69.1,29.37-69.1,68.91A86.23,86.23,0,0,0,86.6,86.66Z"/><path class="cls-4" d="M142,32.52a47.78,47.78,0,0,1,12.42-1.62h.39A43.94,43.94,0,0,1,183.26,41a20.23,20.23,0,0,0,2.21-.91c3-14.79-2.59-27.62-11.73-37.46A73,73,0,0,0,154.37,0H154a71,71,0,0,0-32.66,7.79C128.09,19.25,135.12,27.15,142,32.52Z"/><path class="cls-5" d="M154.37,0H154a71,71,0,0,0-32.66,7.79c33.9,12,52,24.07,61.48,32.8a37.93,37.93,0,0,1,7.75,8.64A18.81,18.81,0,0,1,193,53.58h0a37.83,37.83,0,0,1,3.61,16.29,42.34,42.34,0,0,1-3.39,16.79h29.23a91.81,91.81,0,0,0,1.42-16.6C223.86,28.79,192.57,0,154.37,0Z"/><path class="cls-6" d="M193.51,222a43.77,43.77,0,0,1,3.09,16.79c0,23-19.19,39-42.23,39H154c-23,0-41.85-16.32-41.85-39A42.52,42.52,0,0,1,115.53,222H86.3a92.77,92.77,0,0,0-1.41,16.6c0,41.27,31.29,70.06,69.48,70.06h.39c38.58,0,69.1-29.36,69.1-68.91A86.93,86.93,0,0,0,222.15,222Z"/><path class="cls-7" d="M166.8,276.15a47.86,47.86,0,0,1-12.43,1.62H154a43.86,43.86,0,0,1-28.5-10.07,21.13,21.13,0,0,0-2.22.91c-3,14.79,2.6,27.62,11.73,37.46a73.09,73.09,0,0,0,19.37,2.6h.39a71.07,71.07,0,0,0,32.65-7.78C180.65,289.42,173.62,281.53,166.8,276.15Z"/><path class="cls-5" d="M154.37,308.67h.39a71.07,71.07,0,0,0,32.65-7.78c-33.9-12-52-24.07-61.48-32.81a38.33,38.33,0,0,1-7.75-8.63,19,19,0,0,1-2.43-4.36h0a37.83,37.83,0,0,1-3.61-16.29A42.52,42.52,0,0,1,115.53,222H86.3a92.77,92.77,0,0,0-1.41,16.6C84.89,279.88,116.18,308.67,154.37,308.67Z"/><polygon class="cls-2" points="110.44 172.57 133.31 172.57 133.31 152.61 110.44 172.57"/><polygon class="cls-2" points="198.33 172.57 175.47 172.57 175.47 154.96 198.33 172.57"/><path class="cls-8" d="M110.44,148.62s22.87-14.29,43.95-14.29,43.94,14.29,43.94,14.29v23.95s-20.18-17.33-43.94-17.33-43.95,17.33-43.95,17.33Z"/></g></g></svg>